# xmcd
#
# Track frame offsets:
#	150
#	11247
#	60760
#	85820
#	112296
#
# Disc length: 2206 seconds
#
# Revision: 0
# Processed by: cddbd v1.5.2PL0 Copyright (c) Steve Scherf et al.
# Submitted via: dBpowerAMP V4.0
#
DISCID=38089c05
DTITLE=Jimi Hendrix - Live In Los Angeles Forum CA, USA, 26-04-69
DYEAR=1969
DGENRE=Blues
TTITLE0=Star Spangles Banner (trad. arr. by Hendrix)
TTITLE1=Red House
TTITLE2=I Don't Live Today
TTITLE3=Purple Haze
TTITLE4=Spanish Castle Magic 
EXTD=Live In Los Angeles Forum CA, USA, 26-04-69
EXTT0=
EXTT1=
EXTT2=
EXTT3=
EXTT4=
PLAYORDER=
